G75*
%MOIN*%
%OFA0B0*%
%FSLAX24Y24*%
%IPPOS*%
%LPD*%
%AMOC8*
5,1,8,0,0,1.08239X$1,22.5*
%
%ADD10C,0.0740*%
%ADD11OC8,0.0660*%
%ADD12C,0.0750*%
%ADD13OC8,0.0750*%
%ADD14OC8,0.0560*%
%ADD15C,0.0660*%
%ADD16C,0.0520*%
%ADD17C,0.0240*%
%ADD18C,0.0396*%
%ADD19R,0.0396X0.0396*%
D10*
X003145Y005015D03*
X003145Y006015D03*
X003145Y007015D03*
X003066Y013791D03*
X004066Y013791D03*
X013361Y013988D03*
X014361Y013988D03*
D11*
X011267Y012082D03*
X009487Y012098D03*
X009487Y007098D03*
X011267Y007082D03*
X009798Y005216D03*
X009759Y003090D03*
X008168Y003106D03*
X003168Y003106D03*
X014759Y003090D03*
X014798Y005216D03*
D12*
X011845Y013964D03*
D13*
X009845Y013964D03*
D14*
X007483Y013917D03*
X006483Y013917D03*
D15*
X006369Y011397D03*
X005369Y011397D03*
X004369Y011397D03*
X004369Y008397D03*
X005369Y008397D03*
X006369Y008397D03*
X007369Y008397D03*
X007369Y011397D03*
D16*
X006987Y006263D02*
X006987Y005743D01*
X005987Y005743D02*
X005987Y006263D01*
X004987Y006263D02*
X004987Y005743D01*
X012960Y007531D02*
X012960Y008051D01*
X013960Y008051D02*
X013960Y007531D01*
X014960Y007531D02*
X014960Y008051D01*
X014960Y010484D02*
X014960Y011004D01*
X013960Y011004D02*
X013960Y010484D01*
X012960Y010484D02*
X012960Y011004D01*
D17*
X001183Y000937D02*
X001094Y000937D01*
X001094Y001027D01*
X001183Y000937D01*
X002720Y000937D02*
X002872Y001089D01*
X003023Y001351D01*
X003102Y001643D01*
X003102Y001946D01*
X003023Y002239D01*
X002872Y002501D01*
X002658Y002715D01*
X002396Y002866D01*
X002103Y002945D01*
X001800Y002945D01*
X001508Y002866D01*
X001246Y002715D01*
X001094Y002563D01*
X001094Y016432D01*
X014963Y016432D01*
X014811Y016280D01*
X014660Y016018D01*
X014581Y015726D01*
X014581Y015423D01*
X014660Y015130D01*
X014811Y014868D01*
X015025Y014654D01*
X015287Y014503D01*
X015580Y014424D01*
X015883Y014424D01*
X016175Y014503D01*
X016437Y014654D01*
X016589Y014806D01*
X016589Y000937D01*
X002720Y000937D01*
X002897Y001132D02*
X016589Y001132D01*
X016589Y001371D02*
X003029Y001371D01*
X003092Y001609D02*
X016589Y001609D01*
X016589Y001848D02*
X003102Y001848D01*
X003064Y002086D02*
X016589Y002086D01*
X016589Y002325D02*
X002973Y002325D01*
X002940Y002556D02*
X003396Y002556D01*
X003718Y002878D01*
X003718Y003334D01*
X003396Y003656D01*
X002940Y003656D01*
X002618Y003334D01*
X002618Y002878D01*
X002940Y002556D01*
X002933Y002563D02*
X002809Y002563D01*
X002694Y002802D02*
X002507Y002802D01*
X002618Y003040D02*
X001094Y003040D01*
X001094Y002802D02*
X001396Y002802D01*
X001094Y002563D02*
X001094Y002563D01*
X001094Y003279D02*
X002618Y003279D01*
X002802Y003517D02*
X001094Y003517D01*
X001094Y003756D02*
X012108Y003756D01*
X012347Y003517D02*
X010109Y003517D01*
X009987Y003640D02*
X010309Y003318D01*
X010309Y002862D01*
X009987Y002540D01*
X009531Y002540D01*
X009209Y002862D01*
X009209Y003318D01*
X009531Y003640D01*
X009987Y003640D01*
X010309Y003279D02*
X012585Y003279D01*
X012754Y003110D02*
X012754Y002884D01*
X012883Y002755D01*
X013461Y002755D01*
X013590Y002884D01*
X013590Y003462D01*
X013461Y003591D01*
X013235Y003591D01*
X009996Y006829D01*
X010037Y006870D01*
X010037Y007326D01*
X009715Y007648D01*
X009259Y007648D01*
X008937Y007326D01*
X008937Y006870D01*
X009259Y006548D01*
X009316Y006548D01*
X012754Y003110D01*
X012754Y003040D02*
X010309Y003040D01*
X010248Y002802D02*
X012836Y002802D01*
X013172Y003173D02*
X009487Y006858D01*
X009487Y007098D01*
X009189Y006618D02*
X007312Y006618D01*
X007259Y006670D02*
X007394Y006535D01*
X007467Y006359D01*
X007467Y005648D01*
X007394Y005472D01*
X007259Y005337D01*
X007083Y005263D01*
X006892Y005263D01*
X006715Y005337D01*
X006580Y005472D01*
X006507Y005648D01*
X006507Y006359D01*
X006580Y006535D01*
X006715Y006670D01*
X006892Y006743D01*
X007083Y006743D01*
X007259Y006670D01*
X007459Y006379D02*
X009485Y006379D01*
X009723Y006141D02*
X007467Y006141D01*
X007467Y005902D02*
X009962Y005902D01*
X010026Y005766D02*
X009798Y005766D01*
X009570Y005766D01*
X009248Y005444D01*
X009248Y005216D01*
X009248Y004988D01*
X009570Y004666D01*
X009798Y004666D01*
X009798Y005216D01*
X009248Y005216D01*
X009798Y005216D01*
X009798Y005216D01*
X009798Y005216D01*
X009798Y004666D01*
X010026Y004666D01*
X010348Y004988D01*
X010348Y005216D01*
X009798Y005216D01*
X009798Y005766D01*
X009798Y005216D01*
X009798Y005216D01*
X009798Y005216D01*
X010348Y005216D01*
X010348Y005444D01*
X010026Y005766D01*
X010128Y005664D02*
X010200Y005664D01*
X010348Y005425D02*
X010439Y005425D01*
X010348Y005187D02*
X010677Y005187D01*
X010916Y004948D02*
X010308Y004948D01*
X010070Y004710D02*
X011154Y004710D01*
X011393Y004471D02*
X003377Y004471D01*
X003371Y004469D02*
X003454Y004511D01*
X003529Y004565D01*
X003595Y004631D01*
X003649Y004706D01*
X003691Y004789D01*
X003720Y004877D01*
X003735Y004969D01*
X003735Y005015D01*
X003145Y005015D01*
X003145Y005015D01*
X003145Y004425D01*
X003191Y004425D01*
X003283Y004440D01*
X003371Y004469D01*
X003145Y004471D02*
X003145Y004471D01*
X003145Y004425D02*
X003145Y005015D01*
X003145Y005015D01*
X003735Y005015D01*
X003735Y005062D01*
X003720Y005153D01*
X003691Y005242D01*
X003649Y005325D01*
X003595Y005400D01*
X003529Y005465D01*
X003467Y005510D01*
X003479Y005515D01*
X003645Y005681D01*
X003735Y005898D01*
X003735Y006133D01*
X003645Y006349D01*
X003479Y006515D01*
X003645Y006681D01*
X003735Y006898D01*
X003735Y007133D01*
X003645Y007349D01*
X003479Y007515D01*
X003262Y007605D01*
X003027Y007605D01*
X002810Y007515D01*
X002644Y007349D01*
X002555Y007133D01*
X002555Y006898D01*
X002644Y006681D01*
X002810Y006515D01*
X002644Y006349D01*
X002555Y006133D01*
X002555Y005898D01*
X002644Y005681D01*
X002810Y005515D01*
X002822Y005510D01*
X002760Y005465D01*
X002695Y005400D01*
X002640Y005325D01*
X002598Y005242D01*
X002569Y005153D01*
X002555Y005062D01*
X002555Y005015D01*
X002555Y004969D01*
X002569Y004877D01*
X002598Y004789D01*
X002640Y004706D01*
X002695Y004631D01*
X002760Y004565D01*
X002835Y004511D01*
X002918Y004469D01*
X003006Y004440D01*
X003098Y004425D01*
X003145Y004425D01*
X002912Y004471D02*
X001094Y004471D01*
X001094Y004233D02*
X011631Y004233D01*
X011870Y003994D02*
X001094Y003994D01*
X001094Y004710D02*
X002638Y004710D01*
X002558Y004948D02*
X001094Y004948D01*
X001094Y005187D02*
X002580Y005187D01*
X002555Y005015D02*
X003145Y005015D01*
X002555Y005015D01*
X002720Y005425D02*
X001094Y005425D01*
X001094Y005664D02*
X002662Y005664D01*
X002555Y005902D02*
X001094Y005902D01*
X001094Y006141D02*
X002558Y006141D01*
X002674Y006379D02*
X001094Y006379D01*
X001094Y006618D02*
X002708Y006618D01*
X002572Y006856D02*
X001094Y006856D01*
X001094Y007095D02*
X002555Y007095D01*
X002638Y007333D02*
X001094Y007333D01*
X001094Y007572D02*
X002947Y007572D01*
X003343Y007572D02*
X009183Y007572D01*
X008945Y007333D02*
X003651Y007333D01*
X003735Y007095D02*
X008937Y007095D01*
X008951Y006856D02*
X003717Y006856D01*
X003582Y006618D02*
X004663Y006618D01*
X004674Y006630D02*
X004621Y006576D01*
X004577Y006515D01*
X004542Y006448D01*
X004519Y006376D01*
X004507Y006301D01*
X004507Y006003D01*
X004507Y005706D01*
X004519Y005631D01*
X004542Y005559D01*
X004577Y005492D01*
X004621Y005431D01*
X004674Y005377D01*
X004736Y005333D01*
X004803Y005299D01*
X004875Y005275D01*
X004949Y005263D01*
X004987Y005263D01*
X004987Y006003D01*
X004987Y006003D01*
X004987Y005263D01*
X005025Y005263D01*
X005099Y005275D01*
X005171Y005299D01*
X005239Y005333D01*
X005300Y005377D01*
X005353Y005431D01*
X005398Y005492D01*
X005432Y005559D01*
X005455Y005631D01*
X005467Y005706D01*
X005467Y006003D01*
X004987Y006003D01*
X004507Y006003D01*
X004987Y006003D01*
X004987Y006003D01*
X004987Y006003D01*
X005467Y006003D01*
X005467Y006301D01*
X005455Y006376D01*
X005432Y006448D01*
X005398Y006515D01*
X005353Y006576D01*
X005300Y006630D01*
X005239Y006674D01*
X005171Y006708D01*
X005099Y006732D01*
X005025Y006743D01*
X004987Y006743D01*
X004949Y006743D01*
X004875Y006732D01*
X004803Y006708D01*
X004736Y006674D01*
X004674Y006630D01*
X004520Y006379D02*
X003615Y006379D01*
X003731Y006141D02*
X004507Y006141D01*
X004507Y005902D02*
X003735Y005902D01*
X003628Y005664D02*
X004514Y005664D01*
X004626Y005425D02*
X003569Y005425D01*
X003709Y005187D02*
X009248Y005187D01*
X009288Y004948D02*
X003731Y004948D01*
X003651Y004710D02*
X009527Y004710D01*
X009798Y004710D02*
X009798Y004710D01*
X009798Y004948D02*
X009798Y004948D01*
X009798Y005187D02*
X009798Y005187D01*
X009798Y005425D02*
X009798Y005425D01*
X009798Y005664D02*
X009798Y005664D01*
X009468Y005664D02*
X007467Y005664D01*
X007348Y005425D02*
X009248Y005425D01*
X010446Y006379D02*
X016589Y006379D01*
X016589Y006141D02*
X010685Y006141D01*
X010923Y005902D02*
X016589Y005902D01*
X016589Y005664D02*
X015128Y005664D01*
X015026Y005766D02*
X014570Y005766D01*
X014248Y005444D01*
X014248Y004988D01*
X014570Y004666D01*
X015026Y004666D01*
X015348Y004988D01*
X015348Y005444D01*
X015026Y005766D01*
X015348Y005425D02*
X016589Y005425D01*
X016589Y005187D02*
X015348Y005187D01*
X015308Y004948D02*
X016589Y004948D01*
X016589Y004710D02*
X015070Y004710D01*
X014527Y004710D02*
X012116Y004710D01*
X011877Y004948D02*
X014288Y004948D01*
X014248Y005187D02*
X011639Y005187D01*
X011400Y005425D02*
X014248Y005425D01*
X014468Y005664D02*
X011162Y005664D01*
X011039Y006532D02*
X011494Y006532D01*
X011817Y006854D01*
X011817Y007310D01*
X011494Y007632D01*
X011039Y007632D01*
X010717Y007310D01*
X010717Y006854D01*
X011039Y006532D01*
X010953Y006618D02*
X010208Y006618D01*
X010023Y006856D02*
X010717Y006856D01*
X010717Y007095D02*
X010037Y007095D01*
X010029Y007333D02*
X010740Y007333D01*
X010978Y007572D02*
X009791Y007572D01*
X011555Y007572D02*
X012480Y007572D01*
X012480Y007435D02*
X012553Y007259D01*
X012688Y007124D01*
X012864Y007051D01*
X013055Y007051D01*
X013231Y007124D01*
X013366Y007259D01*
X013440Y007435D01*
X013440Y008146D01*
X013366Y008323D01*
X013231Y008458D01*
X013055Y008531D01*
X012864Y008531D01*
X012688Y008458D01*
X012553Y008323D01*
X012480Y008146D01*
X012480Y007435D01*
X012522Y007333D02*
X011793Y007333D01*
X011817Y007095D02*
X012758Y007095D01*
X013161Y007095D02*
X013758Y007095D01*
X013688Y007124D02*
X013553Y007259D01*
X013480Y007435D01*
X013480Y008146D01*
X013553Y008323D01*
X013688Y008458D01*
X013864Y008531D01*
X014055Y008531D01*
X014231Y008458D01*
X014366Y008323D01*
X014440Y008146D01*
X014440Y007435D01*
X014366Y007259D01*
X014231Y007124D01*
X014055Y007051D01*
X013864Y007051D01*
X013688Y007124D01*
X013522Y007333D02*
X013397Y007333D01*
X013440Y007572D02*
X013480Y007572D01*
X013480Y007810D02*
X013440Y007810D01*
X013440Y008049D02*
X013480Y008049D01*
X013538Y008287D02*
X013381Y008287D01*
X013067Y008526D02*
X013852Y008526D01*
X014067Y008526D02*
X014890Y008526D01*
X014922Y008531D02*
X014847Y008519D01*
X014775Y008496D01*
X014708Y008461D01*
X014647Y008417D01*
X014593Y008364D01*
X014549Y008302D01*
X014515Y008235D01*
X014491Y008163D01*
X014480Y008089D01*
X014480Y007791D01*
X014960Y007791D01*
X015440Y007791D01*
X015440Y008089D01*
X015428Y008163D01*
X015404Y008235D01*
X015370Y008302D01*
X015326Y008364D01*
X015272Y008417D01*
X015211Y008461D01*
X015144Y008496D01*
X015072Y008519D01*
X014997Y008531D01*
X014960Y008531D01*
X014960Y007791D01*
X014960Y007791D01*
X015440Y007791D01*
X015440Y007493D01*
X015428Y007418D01*
X015404Y007347D01*
X015370Y007279D01*
X015326Y007218D01*
X015272Y007165D01*
X015211Y007120D01*
X015144Y007086D01*
X015072Y007063D01*
X014997Y007051D01*
X014960Y007051D01*
X014960Y007791D01*
X014960Y007791D01*
X014960Y007791D01*
X014960Y008531D01*
X014922Y008531D01*
X014960Y008526D02*
X014960Y008526D01*
X015029Y008526D02*
X016589Y008526D01*
X016589Y008764D02*
X007780Y008764D01*
X007835Y008709D02*
X007681Y008863D01*
X007478Y008947D01*
X007260Y008947D01*
X007057Y008863D01*
X006903Y008709D01*
X006869Y008627D01*
X006835Y008709D01*
X006709Y008835D01*
X006709Y009418D01*
X006817Y009526D01*
X008080Y009526D01*
X008158Y009448D01*
X008737Y009448D01*
X008866Y009576D01*
X008866Y010155D01*
X008737Y010284D01*
X008158Y010284D01*
X008080Y010206D01*
X006608Y010206D01*
X006483Y010154D01*
X006388Y010058D01*
X006081Y009751D01*
X006029Y009626D01*
X006029Y008835D01*
X005903Y008709D01*
X005869Y008627D01*
X005835Y008709D01*
X005681Y008863D01*
X005478Y008947D01*
X005260Y008947D01*
X005057Y008863D01*
X004903Y008709D01*
X004869Y008627D01*
X004839Y008685D01*
X004788Y008755D01*
X004727Y008817D01*
X004657Y008868D01*
X004580Y008907D01*
X004498Y008934D01*
X004412Y008947D01*
X004369Y008947D01*
X004369Y008397D01*
X004369Y007847D01*
X004412Y007847D01*
X004498Y007861D01*
X004580Y007887D01*
X004657Y007927D01*
X004727Y007978D01*
X004788Y008039D01*
X004839Y008109D01*
X004869Y008167D01*
X004903Y008086D01*
X005057Y007931D01*
X005260Y007847D01*
X005478Y007847D01*
X005681Y007931D01*
X005835Y008086D01*
X005869Y008167D01*
X005903Y008086D01*
X006057Y007931D01*
X006260Y007847D01*
X006478Y007847D01*
X006681Y007931D01*
X006835Y008086D01*
X006869Y008167D01*
X006903Y008086D01*
X007057Y007931D01*
X007260Y007847D01*
X007478Y007847D01*
X007681Y007931D01*
X007835Y008086D01*
X007919Y008288D01*
X007919Y008507D01*
X007835Y008709D01*
X007911Y008526D02*
X012852Y008526D01*
X012538Y008287D02*
X007919Y008287D01*
X007798Y008049D02*
X012480Y008049D01*
X012480Y007810D02*
X001094Y007810D01*
X001094Y008049D02*
X003942Y008049D01*
X003949Y008039D02*
X004011Y007978D01*
X004081Y007927D01*
X004158Y007887D01*
X004240Y007861D01*
X004326Y007847D01*
X004369Y007847D01*
X004369Y008397D01*
X004369Y008397D01*
X003819Y008397D01*
X003819Y008354D01*
X003833Y008268D01*
X003859Y008186D01*
X003899Y008109D01*
X003949Y008039D01*
X003830Y008287D02*
X001094Y008287D01*
X001094Y008526D02*
X003833Y008526D01*
X003819Y008440D01*
X003819Y008397D01*
X004369Y008397D01*
X004369Y008397D01*
X004369Y008397D01*
X004369Y008947D01*
X004326Y008947D01*
X004240Y008934D01*
X004158Y008907D01*
X004081Y008868D01*
X004011Y008817D01*
X003949Y008755D01*
X003899Y008685D01*
X003859Y008608D01*
X003833Y008526D01*
X003958Y008764D02*
X001094Y008764D01*
X001094Y009003D02*
X006029Y009003D01*
X005958Y008764D02*
X005780Y008764D01*
X006029Y009241D02*
X001094Y009241D01*
X001094Y009480D02*
X006029Y009480D01*
X006067Y009718D02*
X001094Y009718D01*
X001094Y009957D02*
X006286Y009957D01*
X006584Y010195D02*
X001094Y010195D01*
X001094Y010434D02*
X012480Y010434D01*
X012480Y010388D02*
X012553Y010212D01*
X012688Y010077D01*
X012864Y010004D01*
X013055Y010004D01*
X013231Y010077D01*
X013366Y010212D01*
X013440Y010388D01*
X013440Y011099D01*
X013366Y011276D01*
X013231Y011411D01*
X013055Y011484D01*
X012864Y011484D01*
X012688Y011411D01*
X012553Y011276D01*
X012480Y011099D01*
X012480Y010388D01*
X012569Y010195D02*
X008825Y010195D01*
X008866Y009957D02*
X016589Y009957D01*
X016589Y010195D02*
X015350Y010195D01*
X015366Y010212D02*
X015440Y010388D01*
X015440Y011099D01*
X015366Y011276D01*
X015231Y011411D01*
X015055Y011484D01*
X014864Y011484D01*
X014688Y011411D01*
X014553Y011276D01*
X014480Y011099D01*
X014480Y010388D01*
X014553Y010212D01*
X014688Y010077D01*
X014864Y010004D01*
X015055Y010004D01*
X015231Y010077D01*
X015366Y010212D01*
X015440Y010434D02*
X016589Y010434D01*
X016589Y010672D02*
X015440Y010672D01*
X015440Y010911D02*
X016589Y010911D01*
X016589Y011149D02*
X015419Y011149D01*
X015254Y011388D02*
X016589Y011388D01*
X016589Y011626D02*
X011589Y011626D01*
X011494Y011532D02*
X011817Y011854D01*
X011817Y012310D01*
X011494Y012632D01*
X011039Y012632D01*
X010717Y012310D01*
X010717Y011854D01*
X011039Y011532D01*
X011494Y011532D01*
X011817Y011865D02*
X016589Y011865D01*
X016589Y012103D02*
X011817Y012103D01*
X011785Y012342D02*
X016589Y012342D01*
X016589Y012580D02*
X011546Y012580D01*
X010987Y012580D02*
X009782Y012580D01*
X009715Y012648D02*
X009259Y012648D01*
X008937Y012326D01*
X008937Y011870D01*
X009259Y011548D01*
X009715Y011548D01*
X010037Y011870D01*
X010037Y012326D01*
X009715Y012648D01*
X010021Y012342D02*
X010748Y012342D01*
X010717Y012103D02*
X010037Y012103D01*
X010032Y011865D02*
X010717Y011865D01*
X010945Y011626D02*
X009793Y011626D01*
X009181Y011626D02*
X008554Y011626D01*
X008540Y011613D02*
X008669Y011742D01*
X008669Y012320D01*
X008540Y012449D01*
X007962Y012449D01*
X007884Y012371D01*
X006412Y012371D01*
X006287Y012319D01*
X006191Y012224D01*
X006081Y012113D01*
X006029Y011988D01*
X006029Y011835D01*
X005903Y011709D01*
X005869Y011627D01*
X005835Y011709D01*
X005681Y011863D01*
X005478Y011947D01*
X005260Y011947D01*
X005057Y011863D01*
X004903Y011709D01*
X004869Y011627D01*
X004835Y011709D01*
X004681Y011863D01*
X004478Y011947D01*
X004260Y011947D01*
X004057Y011863D01*
X003903Y011709D01*
X003819Y011507D01*
X003819Y011288D01*
X003903Y011086D01*
X004057Y010931D01*
X004260Y010847D01*
X004478Y010847D01*
X004681Y010931D01*
X004835Y011086D01*
X004869Y011167D01*
X004903Y011086D01*
X005057Y010931D01*
X005260Y010847D01*
X005478Y010847D01*
X005681Y010931D01*
X005835Y011086D01*
X005869Y011167D01*
X005903Y011086D01*
X006057Y010931D01*
X006260Y010847D01*
X006478Y010847D01*
X006681Y010931D01*
X006835Y011086D01*
X006869Y011167D01*
X006903Y011086D01*
X007057Y010931D01*
X007260Y010847D01*
X007478Y010847D01*
X007681Y010931D01*
X007835Y011086D01*
X007919Y011288D01*
X007919Y011507D01*
X007843Y011691D01*
X007884Y011691D01*
X007962Y011613D01*
X008540Y011613D01*
X008669Y011865D02*
X008942Y011865D01*
X008937Y012103D02*
X008669Y012103D01*
X008647Y012342D02*
X008953Y012342D01*
X009192Y012580D02*
X001094Y012580D01*
X001094Y012342D02*
X006341Y012342D01*
X006479Y012031D02*
X008251Y012031D01*
X007948Y011626D02*
X007869Y011626D01*
X007919Y011388D02*
X012665Y011388D01*
X012500Y011149D02*
X007862Y011149D01*
X007632Y010911D02*
X012480Y010911D01*
X012480Y010672D02*
X001094Y010672D01*
X001094Y010911D02*
X004106Y010911D01*
X003876Y011149D02*
X001094Y011149D01*
X001094Y011388D02*
X003819Y011388D01*
X003869Y011626D02*
X001094Y011626D01*
X001094Y011865D02*
X004061Y011865D01*
X004677Y011865D02*
X005061Y011865D01*
X005677Y011865D02*
X006029Y011865D01*
X006077Y012103D02*
X001094Y012103D01*
X001094Y012819D02*
X016589Y012819D01*
X016589Y013057D02*
X001094Y013057D01*
X001094Y013296D02*
X002743Y013296D01*
X002757Y013286D02*
X002839Y013244D01*
X002928Y013215D01*
X003019Y013201D01*
X003066Y013201D01*
X003112Y013201D01*
X003204Y013215D01*
X003292Y013244D01*
X003375Y013286D01*
X003450Y013341D01*
X003516Y013407D01*
X003561Y013468D01*
X003566Y013457D01*
X003732Y013291D01*
X003948Y013201D01*
X004183Y013201D01*
X004400Y013291D01*
X004566Y013457D01*
X004656Y013674D01*
X004656Y013908D01*
X004566Y014125D01*
X004400Y014291D01*
X004183Y014381D01*
X003948Y014381D01*
X003732Y014291D01*
X003566Y014125D01*
X003561Y014113D01*
X003516Y014175D01*
X003450Y014241D01*
X003375Y014295D01*
X003292Y014338D01*
X003204Y014366D01*
X003112Y014381D01*
X003066Y014381D01*
X003066Y013791D01*
X003066Y013791D01*
X003066Y014381D01*
X003019Y014381D01*
X002928Y014366D01*
X002839Y014338D01*
X002757Y014295D01*
X002681Y014241D01*
X002616Y014175D01*
X002561Y014100D01*
X002519Y014017D01*
X002490Y013929D01*
X002476Y013837D01*
X002476Y013791D01*
X003066Y013791D01*
X003066Y013201D01*
X003066Y013791D01*
X003066Y013791D01*
X003066Y013791D01*
X002476Y013791D01*
X002476Y013744D01*
X002490Y013653D01*
X002519Y013564D01*
X002561Y013482D01*
X002616Y013407D01*
X002681Y013341D01*
X002757Y013286D01*
X002534Y013534D02*
X001094Y013534D01*
X001094Y013773D02*
X002476Y013773D01*
X002517Y014011D02*
X001094Y014011D01*
X001094Y014250D02*
X002694Y014250D01*
X003066Y014250D02*
X003066Y014250D01*
X003066Y014011D02*
X003066Y014011D01*
X003066Y013773D02*
X003066Y013773D01*
X003066Y013534D02*
X003066Y013534D01*
X003066Y013296D02*
X003066Y013296D01*
X003388Y013296D02*
X003726Y013296D01*
X004405Y013296D02*
X016589Y013296D01*
X016589Y013534D02*
X014742Y013534D01*
X014695Y013488D02*
X014861Y013654D01*
X014951Y013870D01*
X014951Y014105D01*
X014861Y014322D01*
X014695Y014488D01*
X014478Y014578D01*
X014244Y014578D01*
X014027Y014488D01*
X013861Y014322D01*
X013695Y014488D01*
X013478Y014578D01*
X013244Y014578D01*
X013027Y014488D01*
X012861Y014322D01*
X012771Y014105D01*
X012771Y013870D01*
X012861Y013654D01*
X013027Y013488D01*
X013244Y013398D01*
X013478Y013398D01*
X013695Y013488D01*
X013861Y013653D01*
X014027Y013488D01*
X014244Y013398D01*
X014478Y013398D01*
X014695Y013488D01*
X014911Y013773D02*
X016589Y013773D01*
X016589Y014011D02*
X014951Y014011D01*
X014891Y014250D02*
X016589Y014250D01*
X016589Y014488D02*
X016121Y014488D01*
X016510Y014727D02*
X016589Y014727D01*
X015341Y014488D02*
X014694Y014488D01*
X014952Y014727D02*
X001094Y014727D01*
X001094Y014488D02*
X009528Y014488D01*
X009599Y014559D02*
X009250Y014211D01*
X009250Y013964D01*
X009250Y013718D01*
X009599Y013369D01*
X009845Y013369D01*
X009845Y013964D01*
X009250Y013964D01*
X009845Y013964D01*
X009845Y013964D01*
X009845Y013964D01*
X009845Y014559D01*
X009599Y014559D01*
X009845Y014559D02*
X010092Y014559D01*
X010440Y014211D01*
X010440Y013964D01*
X009845Y013964D01*
X009845Y013964D01*
X009845Y013369D01*
X010092Y013369D01*
X010440Y013718D01*
X010440Y013964D01*
X009845Y013964D01*
X009845Y014559D01*
X009845Y014488D02*
X009845Y014488D01*
X009845Y014250D02*
X009845Y014250D01*
X009845Y014011D02*
X009845Y014011D01*
X009845Y013964D02*
X009845Y013964D01*
X009845Y013773D02*
X009845Y013773D01*
X009845Y013534D02*
X009845Y013534D01*
X009434Y013534D02*
X007808Y013534D01*
X007690Y013417D02*
X007983Y013710D01*
X007983Y014124D01*
X007690Y014417D01*
X007276Y014417D01*
X006983Y014124D01*
X006690Y014417D01*
X006483Y014417D01*
X006276Y014417D01*
X005983Y014124D01*
X005983Y013917D01*
X006483Y013917D01*
X006483Y014417D01*
X006483Y013917D01*
X006483Y013917D01*
X006483Y013917D01*
X005983Y013917D01*
X005983Y013710D01*
X006276Y013417D01*
X006483Y013417D01*
X006483Y013917D01*
X006483Y013917D01*
X006983Y013917D01*
X006983Y014124D01*
X006983Y013710D01*
X006983Y013917D01*
X006483Y013917D01*
X006483Y013917D01*
X006483Y013417D01*
X006690Y013417D01*
X006983Y013710D01*
X007276Y013417D01*
X007690Y013417D01*
X007983Y013773D02*
X009250Y013773D01*
X009250Y014011D02*
X007983Y014011D01*
X007857Y014250D02*
X009290Y014250D01*
X010163Y014488D02*
X011556Y014488D01*
X011508Y014469D02*
X011341Y014301D01*
X011250Y014082D01*
X011250Y013846D01*
X011341Y013627D01*
X011508Y013460D01*
X011727Y013369D01*
X011964Y013369D01*
X012182Y013460D01*
X012350Y013627D01*
X012440Y013846D01*
X012440Y014082D01*
X012350Y014301D01*
X012182Y014469D01*
X011964Y014559D01*
X011727Y014559D01*
X011508Y014469D01*
X011320Y014250D02*
X010401Y014250D01*
X010440Y014011D02*
X011250Y014011D01*
X011281Y013773D02*
X010440Y013773D01*
X010257Y013534D02*
X011434Y013534D01*
X012257Y013534D02*
X012980Y013534D01*
X012811Y013773D02*
X012410Y013773D01*
X012440Y014011D02*
X012771Y014011D01*
X012831Y014250D02*
X012371Y014250D01*
X012134Y014488D02*
X013028Y014488D01*
X013694Y014488D02*
X014028Y014488D01*
X014755Y014965D02*
X001094Y014965D01*
X001094Y015204D02*
X014640Y015204D01*
X014581Y015442D02*
X001094Y015442D01*
X001094Y015681D02*
X014581Y015681D01*
X014633Y015919D02*
X001094Y015919D01*
X001094Y016158D02*
X014740Y016158D01*
X014927Y016396D02*
X001094Y016396D01*
X003438Y014250D02*
X003690Y014250D01*
X004441Y014250D02*
X006109Y014250D01*
X005983Y014011D02*
X004613Y014011D01*
X004656Y013773D02*
X005983Y013773D01*
X006159Y013534D02*
X004598Y013534D01*
X006369Y011921D02*
X006479Y012031D01*
X006369Y011921D02*
X006369Y011397D01*
X005876Y011149D02*
X005862Y011149D01*
X005632Y010911D02*
X006106Y010911D01*
X006632Y010911D02*
X007106Y010911D01*
X006876Y011149D02*
X006862Y011149D01*
X006869Y011627D02*
X006895Y011691D01*
X006843Y011691D01*
X006869Y011627D01*
X006676Y009866D02*
X008448Y009866D01*
X008769Y009480D02*
X016589Y009480D01*
X016589Y009718D02*
X008866Y009718D01*
X008126Y009480D02*
X006771Y009480D01*
X006709Y009241D02*
X016589Y009241D01*
X016589Y009003D02*
X006709Y009003D01*
X006780Y008764D02*
X006958Y008764D01*
X006369Y008397D02*
X006369Y009559D01*
X006676Y009866D01*
X005106Y010911D02*
X004632Y010911D01*
X004862Y011149D02*
X004876Y011149D01*
X006483Y013534D02*
X006483Y013534D01*
X006483Y013773D02*
X006483Y013773D01*
X006483Y014011D02*
X006483Y014011D01*
X006483Y014250D02*
X006483Y014250D01*
X006857Y014250D02*
X007109Y014250D01*
X006983Y014011D02*
X006983Y014011D01*
X006983Y013773D02*
X006983Y013773D01*
X006808Y013534D02*
X007159Y013534D01*
X004958Y008764D02*
X004780Y008764D01*
X004369Y008764D02*
X004369Y008764D01*
X004369Y008526D02*
X004369Y008526D01*
X004369Y008287D02*
X004369Y008287D01*
X004369Y008049D02*
X004369Y008049D01*
X004796Y008049D02*
X004939Y008049D01*
X005798Y008049D02*
X005939Y008049D01*
X006798Y008049D02*
X006939Y008049D01*
X006663Y006618D02*
X006312Y006618D01*
X006259Y006670D02*
X006083Y006743D01*
X005892Y006743D01*
X005715Y006670D01*
X005580Y006535D01*
X005507Y006359D01*
X005507Y005648D01*
X005580Y005472D01*
X005715Y005337D01*
X005892Y005263D01*
X006083Y005263D01*
X006259Y005337D01*
X006394Y005472D01*
X006467Y005648D01*
X006467Y006359D01*
X006394Y006535D01*
X006259Y006670D01*
X006459Y006379D02*
X006516Y006379D01*
X006507Y006141D02*
X006467Y006141D01*
X006467Y005902D02*
X006507Y005902D01*
X006507Y005664D02*
X006467Y005664D01*
X006348Y005425D02*
X006626Y005425D01*
X005626Y005425D02*
X005348Y005425D01*
X005460Y005664D02*
X005507Y005664D01*
X005507Y005902D02*
X005467Y005902D01*
X005467Y006141D02*
X005507Y006141D01*
X005516Y006379D02*
X005454Y006379D01*
X005312Y006618D02*
X005663Y006618D01*
X004987Y006618D02*
X004987Y006618D01*
X004987Y006743D02*
X004987Y006003D01*
X004987Y006003D01*
X004987Y006743D01*
X004987Y006379D02*
X004987Y006379D01*
X004987Y006141D02*
X004987Y006141D01*
X004987Y005902D02*
X004987Y005902D01*
X004987Y005664D02*
X004987Y005664D01*
X004987Y005425D02*
X004987Y005425D01*
X003145Y005015D02*
X003145Y005015D01*
X003145Y004948D02*
X003145Y004948D01*
X003145Y004710D02*
X003145Y004710D01*
X003534Y003517D02*
X007802Y003517D01*
X007940Y003656D02*
X007618Y003334D01*
X007618Y002878D01*
X007940Y002556D01*
X008396Y002556D01*
X008718Y002878D01*
X008718Y003334D01*
X008396Y003656D01*
X007940Y003656D01*
X007618Y003279D02*
X003718Y003279D01*
X003718Y003040D02*
X007618Y003040D01*
X007694Y002802D02*
X003642Y002802D01*
X003404Y002563D02*
X007933Y002563D01*
X008404Y002563D02*
X009508Y002563D01*
X009269Y002802D02*
X008642Y002802D01*
X008718Y003040D02*
X009209Y003040D01*
X009209Y003279D02*
X008718Y003279D01*
X008534Y003517D02*
X009408Y003517D01*
X010010Y002563D02*
X014508Y002563D01*
X014531Y002540D02*
X014987Y002540D01*
X015309Y002862D01*
X015309Y003318D01*
X014987Y003640D01*
X014531Y003640D01*
X014209Y003318D01*
X014209Y002862D01*
X014531Y002540D01*
X014269Y002802D02*
X013509Y002802D01*
X013590Y003040D02*
X014209Y003040D01*
X014209Y003279D02*
X013590Y003279D01*
X013535Y003517D02*
X014408Y003517D01*
X015109Y003517D02*
X016589Y003517D01*
X016589Y003756D02*
X013070Y003756D01*
X012831Y003994D02*
X016589Y003994D01*
X016589Y004233D02*
X012593Y004233D01*
X012354Y004471D02*
X016589Y004471D01*
X016589Y003279D02*
X015309Y003279D01*
X015309Y003040D02*
X016589Y003040D01*
X016589Y002802D02*
X015248Y002802D01*
X015010Y002563D02*
X016589Y002563D01*
X016589Y006618D02*
X011580Y006618D01*
X011817Y006856D02*
X016589Y006856D01*
X016589Y007095D02*
X015161Y007095D01*
X014960Y007095D02*
X014960Y007095D01*
X014960Y007051D02*
X014960Y007791D01*
X014960Y007791D01*
X014480Y007791D01*
X014480Y007493D01*
X014491Y007418D01*
X014515Y007347D01*
X014549Y007279D01*
X014593Y007218D01*
X014647Y007165D01*
X014708Y007120D01*
X014775Y007086D01*
X014847Y007063D01*
X014922Y007051D01*
X014960Y007051D01*
X014758Y007095D02*
X014161Y007095D01*
X014397Y007333D02*
X014521Y007333D01*
X014480Y007572D02*
X014440Y007572D01*
X014440Y007810D02*
X014480Y007810D01*
X014480Y008049D02*
X014440Y008049D01*
X014381Y008287D02*
X014541Y008287D01*
X014960Y008287D02*
X014960Y008287D01*
X014960Y008049D02*
X014960Y008049D01*
X014960Y007810D02*
X014960Y007810D01*
X014960Y007572D02*
X014960Y007572D01*
X014960Y007333D02*
X014960Y007333D01*
X015398Y007333D02*
X016589Y007333D01*
X016589Y007572D02*
X015440Y007572D01*
X015440Y007810D02*
X016589Y007810D01*
X016589Y008049D02*
X015440Y008049D01*
X015378Y008287D02*
X016589Y008287D01*
X014569Y010195D02*
X014350Y010195D01*
X014366Y010212D02*
X014231Y010077D01*
X014055Y010004D01*
X013864Y010004D01*
X013688Y010077D01*
X013553Y010212D01*
X013480Y010388D01*
X013480Y011099D01*
X013553Y011276D01*
X013688Y011411D01*
X013864Y011484D01*
X014055Y011484D01*
X014231Y011411D01*
X014366Y011276D01*
X014440Y011099D01*
X014440Y010388D01*
X014366Y010212D01*
X014440Y010434D02*
X014480Y010434D01*
X014480Y010672D02*
X014440Y010672D01*
X014440Y010911D02*
X014480Y010911D01*
X014500Y011149D02*
X014419Y011149D01*
X014254Y011388D02*
X014665Y011388D01*
X013665Y011388D02*
X013254Y011388D01*
X013419Y011149D02*
X013500Y011149D01*
X013480Y010911D02*
X013440Y010911D01*
X013440Y010672D02*
X013480Y010672D01*
X013480Y010434D02*
X013440Y010434D01*
X013350Y010195D02*
X013569Y010195D01*
X013742Y013534D02*
X013980Y013534D01*
X016589Y016343D02*
X016499Y016432D01*
X016589Y016432D01*
X016589Y016343D01*
X016589Y016396D02*
X016535Y016396D01*
D18*
X015141Y012425D03*
X008448Y006126D03*
X005495Y012818D03*
D19*
X008251Y012031D03*
X008448Y009866D03*
X013172Y003173D03*
M02*
