G75*
%MOIN*%
%OFA0B0*%
%FSLAX24Y24*%
%IPPOS*%
%LPD*%
%AMOC8*
5,1,8,0,0,1.08239X$1,22.5*
%
%ADD10C,0.0000*%
D10*
X000574Y000417D02*
X000574Y016952D01*
X017109Y016952D01*
X017109Y000417D01*
X000574Y000417D01*
X001322Y001795D02*
X001324Y001845D01*
X001330Y001895D01*
X001340Y001944D01*
X001354Y001992D01*
X001371Y002039D01*
X001392Y002084D01*
X001417Y002128D01*
X001445Y002169D01*
X001477Y002208D01*
X001511Y002245D01*
X001548Y002279D01*
X001588Y002309D01*
X001630Y002336D01*
X001674Y002360D01*
X001720Y002381D01*
X001767Y002397D01*
X001815Y002410D01*
X001865Y002419D01*
X001914Y002424D01*
X001965Y002425D01*
X002015Y002422D01*
X002064Y002415D01*
X002113Y002404D01*
X002161Y002389D01*
X002207Y002371D01*
X002252Y002349D01*
X002295Y002323D01*
X002336Y002294D01*
X002375Y002262D01*
X002411Y002227D01*
X002443Y002189D01*
X002473Y002149D01*
X002500Y002106D01*
X002523Y002062D01*
X002542Y002016D01*
X002558Y001968D01*
X002570Y001919D01*
X002578Y001870D01*
X002582Y001820D01*
X002582Y001770D01*
X002578Y001720D01*
X002570Y001671D01*
X002558Y001622D01*
X002542Y001574D01*
X002523Y001528D01*
X002500Y001484D01*
X002473Y001441D01*
X002443Y001401D01*
X002411Y001363D01*
X002375Y001328D01*
X002336Y001296D01*
X002295Y001267D01*
X002252Y001241D01*
X002207Y001219D01*
X002161Y001201D01*
X002113Y001186D01*
X002064Y001175D01*
X002015Y001168D01*
X001965Y001165D01*
X001914Y001166D01*
X001865Y001171D01*
X001815Y001180D01*
X001767Y001193D01*
X001720Y001209D01*
X001674Y001230D01*
X001630Y001254D01*
X001588Y001281D01*
X001548Y001311D01*
X001511Y001345D01*
X001477Y001382D01*
X001445Y001421D01*
X001417Y001462D01*
X001392Y001506D01*
X001371Y001551D01*
X001354Y001598D01*
X001340Y001646D01*
X001330Y001695D01*
X001324Y001745D01*
X001322Y001795D01*
X015101Y015574D02*
X015103Y015624D01*
X015109Y015674D01*
X015119Y015723D01*
X015133Y015771D01*
X015150Y015818D01*
X015171Y015863D01*
X015196Y015907D01*
X015224Y015948D01*
X015256Y015987D01*
X015290Y016024D01*
X015327Y016058D01*
X015367Y016088D01*
X015409Y016115D01*
X015453Y016139D01*
X015499Y016160D01*
X015546Y016176D01*
X015594Y016189D01*
X015644Y016198D01*
X015693Y016203D01*
X015744Y016204D01*
X015794Y016201D01*
X015843Y016194D01*
X015892Y016183D01*
X015940Y016168D01*
X015986Y016150D01*
X016031Y016128D01*
X016074Y016102D01*
X016115Y016073D01*
X016154Y016041D01*
X016190Y016006D01*
X016222Y015968D01*
X016252Y015928D01*
X016279Y015885D01*
X016302Y015841D01*
X016321Y015795D01*
X016337Y015747D01*
X016349Y015698D01*
X016357Y015649D01*
X016361Y015599D01*
X016361Y015549D01*
X016357Y015499D01*
X016349Y015450D01*
X016337Y015401D01*
X016321Y015353D01*
X016302Y015307D01*
X016279Y015263D01*
X016252Y015220D01*
X016222Y015180D01*
X016190Y015142D01*
X016154Y015107D01*
X016115Y015075D01*
X016074Y015046D01*
X016031Y015020D01*
X015986Y014998D01*
X015940Y014980D01*
X015892Y014965D01*
X015843Y014954D01*
X015794Y014947D01*
X015744Y014944D01*
X015693Y014945D01*
X015644Y014950D01*
X015594Y014959D01*
X015546Y014972D01*
X015499Y014988D01*
X015453Y015009D01*
X015409Y015033D01*
X015367Y015060D01*
X015327Y015090D01*
X015290Y015124D01*
X015256Y015161D01*
X015224Y015200D01*
X015196Y015241D01*
X015171Y015285D01*
X015150Y015330D01*
X015133Y015377D01*
X015119Y015425D01*
X015109Y015474D01*
X015103Y015524D01*
X015101Y015574D01*
M02*
