%
M48
M72
T01C0.0236
T02C0.0320
T03C0.0400
T04C0.1260
%
T01
X8448Y6126
X8448Y9866
X8251Y12031
X5495Y12818
X15141Y12425
X13172Y3173
T02
X14759Y3090
X14798Y5216
X14960Y7791
X13960Y7791
X12960Y7791
X11267Y7082
X9487Y7098
X9798Y5216
X9759Y3090
X8168Y3106
X6987Y6003
X5987Y6003
X4987Y6003
X5369Y8397
X6369Y8397
X7369Y8397
X4369Y8397
X4369Y11397
X5369Y11397
X6369Y11397
X7369Y11397
X9487Y12098
X11267Y12082
X12960Y10744
X13960Y10744
X14960Y10744
X11845Y13964
X9845Y13964
X7483Y13917
X6483Y13917
X3168Y3106
T03
X3145Y5015
X3145Y6015
X3145Y7015
X3066Y13791
X4066Y13791
X13361Y13988
X14361Y13988
T04
X1952Y1795
X15731Y15574
M30
