<?xml version="1.0" standalone="no"?>
<!DOCTYPE svg PUBLIC "-//W3C//DTD SVG 1.1//EN" "http://www.w3.org/Graphics/SVG/1.1/DTD/svg11.dtd">
<svg width="89.5mm" height="463.0mm"
 viewBox="0 0 89.5 463.0"
 xmlns="http://www.w3.org/2000/svg" version="1.1"
 xmlns:xlink="http://www.w3.org/1999/xlink">
<desc>Output from Flights of Ideas SVG Sketchup Plugin</desc>

  <g id="face0" fill="none" stroke="rgb(0,0,255)" stroke-width="0.3" stroke-miterlimit="4" stroke-dasharray="none" stroke-linejoin="round" stroke-linecap="round">
    <line x1="73.5" y1="73.5" x2="73.5" y2="10.0"/>
    <line x1="73.5" y1="10.0" x2="10.0" y2="10.0"/>
    <line x1="10.0" y1="10.0" x2="10.0" y2="73.5"/>
    <line x1="10.0" y1="73.5" x2="73.5" y2="73.5"/>
    <line x1="51.6" y1="71.6" x2="46.4" y2="71.5999999999999"/>
    <line x1="46.4" y1="71.5999999999999" x2="46.4" y2="68.4"/>
    <line x1="46.4" y1="68.4" x2="51.6" y2="68.4"/>
    <line x1="51.6" y1="68.4" x2="51.6" y2="71.6"/>
    <line x1="37.1" y1="68.4" x2="37.1" y2="71.6000000000001"/>
    <line x1="37.1" y1="71.6000000000001" x2="31.9" y2="71.6"/>
    <line x1="31.9" y1="71.6" x2="31.9" y2="68.4"/>
    <line x1="31.9" y1="68.4" x2="37.1" y2="68.4"/>
    <line x1="71.6" y1="31.65" x2="71.6" y2="51.85"/>
    <line x1="71.6" y1="51.85" x2="68.4" y2="51.85"/>
    <line x1="68.4" y1="51.85" x2="68.4" y2="31.65"/>
    <line x1="68.4" y1="31.65" x2="71.6" y2="31.65"/>
    <line x1="11.9" y1="51.85" x2="11.9" y2="31.65"/>
    <line x1="11.9" y1="31.65" x2="15.1" y2="31.65"/>
    <line x1="15.1" y1="31.65" x2="15.1" y2="51.85"/>
    <line x1="15.1" y1="51.85" x2="11.9" y2="51.85"/>
    <line x1="51.6" y1="11.9" x2="51.6" y2="15.1"/>
    <line x1="51.6" y1="15.1" x2="46.4" y2="15.1"/>
    <line x1="46.4" y1="15.1" x2="46.4" y2="11.9"/>
    <line x1="46.4" y1="11.9" x2="51.6" y2="11.9"/>
    <line x1="37.1" y1="15.1" x2="31.9" y2="15.1"/>
    <line x1="31.9" y1="15.1" x2="31.9" y2="11.9"/>
    <line x1="31.9" y1="11.9" x2="37.1" y2="11.9"/>
    <line x1="37.1" y1="11.9" x2="37.1" y2="15.1"/>
    <line x1="43.5536971134425" y1="36.0275287922997" x2="44.9733221582808" y2="36.689348434842"/>
    <line x1="44.9733221582808" y1="36.689348434842" x2="46.173283124824" y2="37.6960431184277"/>
    <line x1="46.173283124824" y1="37.6960431184277" x2="47.0718046562315" y2="38.9790082640121"/>
    <line x1="47.0718046562315" y1="38.9790082640121" x2="47.6076539950148" y2="40.4508119171237"/>
    <line x1="47.6076539950148" y1="40.4508119171237" x2="47.7443138942687" y2="42.0111530910735"/>
    <line x1="47.7443138942687" y1="42.0111530910735" x2="47.4724712077003" y2="43.5536971134425"/>
    <line x1="47.4724712077003" y1="43.5536971134425" x2="46.810651565158" y2="44.9733221582808"/>
    <line x1="46.810651565158" y1="44.9733221582808" x2="45.8039568815723" y2="46.173283124824"/>
    <line x1="45.8039568815723" y1="46.173283124824" x2="44.5209917359879" y2="47.0718046562315"/>
    <line x1="44.5209917359879" y1="47.0718046562315" x2="43.0491880828763" y2="47.6076539950147"/>
    <line x1="43.0491880828763" y1="47.6076539950147" x2="41.4888469089265" y2="47.7443138942687"/>
    <line x1="41.4888469089265" y1="47.7443138942687" x2="39.9463028865575" y2="47.4724712077003"/>
    <line x1="39.9463028865575" y1="47.4724712077003" x2="38.5266778417192" y2="46.810651565158"/>
    <line x1="38.5266778417192" y1="46.810651565158" x2="37.326716875176" y2="45.8039568815723"/>
    <line x1="37.326716875176" y1="45.8039568815723" x2="36.4281953437686" y2="44.5209917359879"/>
    <line x1="36.4281953437686" y1="44.5209917359879" x2="35.8923460049853" y2="43.0491880828763"/>
    <line x1="35.8923460049853" y1="43.0491880828763" x2="35.7556861057313" y2="41.4888469089265"/>
    <line x1="35.7556861057313" y1="41.4888469089265" x2="36.0275287922997" y2="39.9463028865575"/>
    <line x1="36.0275287922997" y1="39.9463028865575" x2="36.689348434842" y2="38.5266778417192"/>
    <line x1="36.689348434842" y1="38.5266778417192" x2="37.6960431184277" y2="37.326716875176"/>
    <line x1="37.6960431184277" y1="37.326716875176" x2="38.9790082640121" y2="36.4281953437686"/>
    <line x1="38.9790082640121" y1="36.4281953437686" x2="40.4508119171237" y2="35.8923460049853"/>
    <line x1="40.4508119171237" y1="35.8923460049853" x2="42.0111530910735" y2="35.7556861057313"/>
    <line x1="42.0111530910735" y1="35.7556861057313" x2="43.5536971134425" y2="36.0275287922997"/>
    <line x1="19.0383692723555" y1="31.7696236424252" x2="32.0383692723555" y2="31.7696236424253"/>
    <line x1="32.0383692723555" y1="31.7696236424253" x2="32.0383692723554" y2="51.7696236424253"/>
    <line x1="32.0383692723554" y1="51.7696236424253" x2="19.0383692723554" y2="51.7696236424253"/>
    <line x1="19.0383692723554" y1="51.7696236424253" x2="19.0383692723555" y2="31.7696236424252"/>
    <line x1="60.7460642380358" y1="45.9043260884127" x2="59.6497973177653" y2="45.9226478798761"/>
    <line x1="59.6497973177653" y1="45.9226478798761" x2="58.5861427583986" y2="45.6566106139526"/>
    <line x1="58.5861427583986" y1="45.6566106139526" x2="57.6275868603842" y2="45.1243442906675"/>
    <line x1="57.6275868603842" y1="45.1243442906675" x2="56.8394536240832" y2="44.362121980341"/>
    <line x1="56.8394536240832" y1="44.362121980341" x2="56.2754530270978" y2="43.42188787379"/>
    <line x1="56.2754530270978" y1="43.42188787379" x2="55.9740207780576" y2="42.3677173715655"/>
    <line x1="55.9740207780576" y1="42.3677173715655" x2="55.9556989865942" y2="41.271450451295"/>
    <line x1="55.9556989865942" y1="41.271450451295" x2="56.2217362525177" y2="40.2077958919283"/>
    <line x1="56.2217362525177" y1="40.2077958919283" x2="56.7540025758028" y2="39.2492399939139"/>
    <line x1="56.7540025758028" y1="39.2492399939139" x2="57.5162248861293" y2="38.4611067576129"/>
    <line x1="57.5162248861293" y1="38.4611067576129" x2="58.4564589926803" y2="37.8971061606276"/>
    <line x1="58.4564589926803" y1="37.8971061606276" x2="59.5106294949048" y2="37.5956739115873"/>
    <line x1="59.5106294949048" y1="37.5956739115873" x2="60.6068964151753" y2="37.5773521201239"/>
    <line x1="60.6068964151753" y1="37.5773521201239" x2="61.670550974542" y2="37.8433893860474"/>
    <line x1="61.670550974542" y1="37.8433893860474" x2="62.6291068725564" y2="38.3756557093325"/>
    <line x1="62.6291068725564" y1="38.3756557093325" x2="63.4172401088574" y2="39.137878019659"/>
    <line x1="63.4172401088574" y1="39.137878019659" x2="63.9812407058427" y2="40.0781121262101"/>
    <line x1="63.9812407058427" y1="40.0781121262101" x2="64.282672954883" y2="41.1322826284346"/>
    <line x1="64.282672954883" y1="41.1322826284346" x2="64.3009947463464" y2="42.228549548705"/>
    <line x1="64.3009947463464" y1="42.228549548705" x2="64.0349574804228" y2="43.2922041080717"/>
    <line x1="64.0349574804228" y1="43.2922041080717" x2="63.5026911571377" y2="44.2507600060861"/>
    <line x1="63.5026911571377" y1="44.2507600060861" x2="62.7404688468113" y2="45.0388932423871"/>
    <line x1="62.7404688468113" y1="45.0388932423871" x2="61.8002347402603" y2="45.6028938393724"/>
    <line x1="61.8002347402603" y1="45.6028938393724" x2="60.7460642380358" y2="45.9043260884127"/>
  </g>
  <g id="face1" fill="none" stroke="rgb(0,0,255)" stroke-width="0.3" stroke-miterlimit="4" stroke-dasharray="none" stroke-linejoin="round" stroke-linecap="round">
    <line x1="73.5" y1="147.0" x2="73.5" y2="83.5"/>
    <line x1="73.5" y1="83.5" x2="10.0" y2="83.5"/>
    <line x1="10.0" y1="83.5" x2="10.0" y2="147.0"/>
    <line x1="10.0" y1="147.0" x2="73.5" y2="147.0"/>
    <line x1="51.6" y1="145.1" x2="46.4" y2="145.1"/>
    <line x1="46.4" y1="145.1" x2="46.4" y2="141.9"/>
    <line x1="46.4" y1="141.9" x2="51.6" y2="141.9"/>
    <line x1="51.6" y1="141.9" x2="51.6" y2="145.1"/>
    <line x1="37.1" y1="141.9" x2="37.1" y2="145.1"/>
    <line x1="37.1" y1="145.1" x2="31.9" y2="145.1"/>
    <line x1="31.9" y1="145.1" x2="31.9" y2="141.9"/>
    <line x1="31.9" y1="141.9" x2="37.1" y2="141.9"/>
    <line x1="71.6" y1="105.15" x2="71.6" y2="125.35"/>
    <line x1="71.6" y1="125.35" x2="68.4" y2="125.35"/>
    <line x1="68.4" y1="125.35" x2="68.4" y2="105.15"/>
    <line x1="68.4" y1="105.15" x2="71.6" y2="105.15"/>
    <line x1="11.9" y1="125.35" x2="11.9" y2="105.15"/>
    <line x1="11.9" y1="105.15" x2="15.1" y2="105.15"/>
    <line x1="15.1" y1="105.15" x2="15.1" y2="125.35"/>
    <line x1="15.1" y1="125.35" x2="11.9" y2="125.35"/>
    <line x1="51.6" y1="85.4" x2="51.6" y2="88.6"/>
    <line x1="51.6" y1="88.6" x2="46.4" y2="88.6"/>
    <line x1="46.4" y1="88.6" x2="46.4" y2="85.4"/>
    <line x1="46.4" y1="85.4" x2="51.6" y2="85.4"/>
    <line x1="37.1" y1="88.6" x2="31.9" y2="88.6"/>
    <line x1="31.9" y1="88.6" x2="31.9" y2="85.4"/>
    <line x1="31.9" y1="85.4" x2="37.1" y2="85.4"/>
    <line x1="37.1" y1="85.4" x2="37.1" y2="88.6"/>
    <line x1="45.0020336833003" y1="112.920992287973" x2="45.1917604225667" y2="113.276183294289"/>
    <line x1="45.1917604225667" y1="113.276183294289" x2="53.145431459146" y2="113.276183294289"/>
    <line x1="53.145431459146" y1="113.276183294289" x2="53.145431459146" y2="117.276183294289"/>
    <line x1="53.145431459146" y1="117.276183294289" x2="45.145431459146" y2="117.276183294289"/>
    <line x1="45.145431459146" y1="117.276183294289" x2="44.8413369512261" y2="117.788431770599"/>
    <line x1="44.8413369512261" y1="117.788431770599" x2="44.0790077120268" y2="118.5020336833"/>
    <line x1="44.0790077120268" y1="118.5020336833" x2="43.1579604461201" y2="118.994014874725"/>
    <line x1="43.1579604461201" y1="118.994014874725" x2="42.140963002575" y2="119.230847639714"/>
    <line x1="42.140963002575" y1="119.230847639714" x2="41.0973220765012" y2="119.196392216719"/>
    <line x1="41.0973220765012" y1="119.196392216719" x2="40.0981600723127" y2="118.892996685875"/>
    <line x1="40.0981600723127" y1="118.892996685875" x2="39.2115682294015" y2="118.341336951226"/>
    <line x1="39.2115682294015" y1="118.341336951226" x2="38.4979663166997" y2="117.579007712027"/>
    <line x1="38.4979663166997" y1="117.579007712027" x2="38.0059851252751" y2="116.65796044612"/>
    <line x1="38.0059851252751" y1="116.65796044612" x2="37.7691523602859" y2="115.640963002575"/>
    <line x1="37.7691523602859" y1="115.640963002575" x2="37.8036077832814" y2="114.597322076501"/>
    <line x1="37.8036077832814" y1="114.597322076501" x2="38.1070033141248" y2="113.598160072313"/>
    <line x1="38.1070033141248" y1="113.598160072313" x2="38.6586630487738" y2="112.711568229402"/>
    <line x1="38.6586630487738" y1="112.711568229402" x2="39.4209922879731" y2="111.9979663167"/>
    <line x1="39.4209922879731" y1="111.9979663167" x2="40.3420395538799" y2="111.505985125275"/>
    <line x1="40.3420395538799" y1="111.505985125275" x2="41.359036997425" y2="111.269152360286"/>
    <line x1="41.359036997425" y1="111.269152360286" x2="42.4026779234987" y2="111.303607783281"/>
    <line x1="42.4026779234987" y1="111.303607783281" x2="43.4018399276873" y2="111.607003314125"/>
    <line x1="43.4018399276873" y1="111.607003314125" x2="44.2884317705985" y2="112.158663048774"/>
    <line x1="44.2884317705985" y1="112.158663048774" x2="45.0020336833003" y2="112.920992287973"/>
  </g>
  <g id="face2" fill="none" stroke="rgb(0,0,255)" stroke-width="0.3" stroke-miterlimit="4" stroke-dasharray="none" stroke-linejoin="round" stroke-linecap="round">
    <line x1="32.0" y1="225.5" x2="32.0" y2="203.5"/>
    <line x1="32.0" y1="203.5" x2="32.5" y2="203.5"/>
    <line x1="32.5" y1="203.5" x2="32.5" y2="228.5"/>
    <line x1="32.5" y1="228.5" x2="30.0" y2="228.5"/>
    <line x1="30.0" y1="228.5" x2="30.0" y2="230.5"/>
    <line x1="30.0" y1="230.5" x2="34.2932961972838" y2="230.5"/>
    <line x1="34.2932961972838" y1="230.5" x2="36.5" y2="208.5"/>
    <line x1="36.5" y1="208.5" x2="37.0" y2="208.5"/>
    <line x1="37.0" y1="208.5" x2="37.0" y2="225.5"/>
    <line x1="37.0" y1="225.5" x2="46.5" y2="225.5"/>
    <line x1="46.5" y1="225.5" x2="46.5" y2="208.5"/>
    <line x1="46.5" y1="208.5" x2="47.0" y2="208.5"/>
    <line x1="47.0" y1="208.5" x2="49.1805283489506" y2="230.5"/>
    <line x1="49.1805283489506" y1="230.5" x2="53.5" y2="230.5"/>
    <line x1="53.5" y1="230.5" x2="53.5" y2="228.5"/>
    <line x1="53.5" y1="228.5" x2="51.0" y2="228.5"/>
    <line x1="51.0" y1="228.5" x2="51.0" y2="203.5"/>
    <line x1="51.0" y1="203.5" x2="51.5" y2="203.5"/>
    <line x1="51.5" y1="203.5" x2="51.5" y2="225.5"/>
    <line x1="51.5" y1="225.5" x2="73.5" y2="225.5"/>
    <line x1="73.5" y1="225.5" x2="73.5" y2="162.0"/>
    <line x1="73.5" y1="162.0" x2="51.5" y2="162.0"/>
    <line x1="51.5" y1="162.0" x2="51.5" y2="184.0"/>
    <line x1="51.5" y1="184.0" x2="51.0" y2="184.0"/>
    <line x1="51.0" y1="184.0" x2="51.0" y2="159.0"/>
    <line x1="51.0" y1="159.0" x2="53.5" y2="159.0"/>
    <line x1="53.5" y1="159.0" x2="53.5" y2="157.0"/>
    <line x1="53.5" y1="157.0" x2="51.0" y2="157.0"/>
    <line x1="51.0" y1="157.0" x2="49.179351401651" y2="157.0"/>
    <line x1="49.179351401651" y1="157.0" x2="47.0" y2="179.0"/>
    <line x1="47.0" y1="179.0" x2="46.5" y2="179.0"/>
    <line x1="46.5" y1="179.0" x2="46.5" y2="162.0"/>
    <line x1="46.5" y1="162.0" x2="37.0" y2="162.0"/>
    <line x1="37.0" y1="162.0" x2="37.0" y2="179.0"/>
    <line x1="37.0" y1="179.0" x2="36.5" y2="179.0"/>
    <line x1="36.5" y1="179.0" x2="34.2740114346681" y2="157.0"/>
    <line x1="34.2740114346681" y1="157.0" x2="30.0" y2="157.0"/>
    <line x1="30.0" y1="157.0" x2="30.0" y2="159.0"/>
    <line x1="30.0" y1="159.0" x2="32.5" y2="159.0"/>
    <line x1="32.5" y1="159.0" x2="32.5" y2="184.0"/>
    <line x1="32.5" y1="184.0" x2="32.0" y2="184.0"/>
    <line x1="32.0" y1="184.0" x2="32.0" y2="162.0"/>
    <line x1="32.0" y1="162.0" x2="10.0" y2="162.0"/>
    <line x1="10.0" y1="162.0" x2="10.0" y2="225.5"/>
    <line x1="10.0" y1="225.5" x2="32.0" y2="225.5"/>
    <line x1="15.1" y1="183.65" x2="15.1" y2="203.85"/>
    <line x1="15.1" y1="203.85" x2="11.9" y2="203.85"/>
    <line x1="11.9" y1="203.85" x2="11.9" y2="183.65"/>
    <line x1="11.9" y1="183.65" x2="15.1" y2="183.65"/>
    <line x1="71.6" y1="203.85" x2="68.4" y2="203.85"/>
    <line x1="68.4" y1="203.85" x2="68.4" y2="183.65"/>
    <line x1="68.4" y1="183.65" x2="71.6" y2="183.65"/>
    <line x1="71.6" y1="183.65" x2="71.6" y2="203.85"/>
  </g>
  <g id="face3" fill="none" stroke="rgb(0,0,255)" stroke-width="0.3" stroke-miterlimit="4" stroke-dasharray="none" stroke-linejoin="round" stroke-linecap="round">
    <line x1="32.0" y1="309.0" x2="32.0" y2="287.0"/>
    <line x1="32.0" y1="287.0" x2="32.5" y2="287.0"/>
    <line x1="32.5" y1="287.0" x2="32.5" y2="312.0"/>
    <line x1="32.5" y1="312.0" x2="30.0" y2="312.0"/>
    <line x1="30.0" y1="312.0" x2="30.0" y2="314.0"/>
    <line x1="30.0" y1="314.0" x2="34.2932961972838" y2="314.0"/>
    <line x1="34.2932961972838" y1="314.0" x2="36.5" y2="292.0"/>
    <line x1="36.5" y1="292.0" x2="37.0" y2="292.0"/>
    <line x1="37.0" y1="292.0" x2="37.0" y2="309.0"/>
    <line x1="37.0" y1="309.0" x2="46.5" y2="309.0"/>
    <line x1="46.5" y1="309.0" x2="46.5" y2="292.0"/>
    <line x1="46.5" y1="292.0" x2="47.0" y2="292.0"/>
    <line x1="47.0" y1="292.0" x2="49.1805283489506" y2="314.0"/>
    <line x1="49.1805283489506" y1="314.0" x2="53.5" y2="314.0"/>
    <line x1="53.5" y1="314.0" x2="53.5" y2="312.0"/>
    <line x1="53.5" y1="312.0" x2="51.0" y2="312.0"/>
    <line x1="51.0" y1="312.0" x2="51.0" y2="287.0"/>
    <line x1="51.0" y1="287.0" x2="51.5" y2="287.0"/>
    <line x1="51.5" y1="287.0" x2="51.5" y2="309.0"/>
    <line x1="51.5" y1="309.0" x2="73.5" y2="309.0"/>
    <line x1="73.5" y1="309.0" x2="73.5" y2="245.5"/>
    <line x1="73.5" y1="245.5" x2="51.5" y2="245.5"/>
    <line x1="51.5" y1="245.5" x2="51.5" y2="267.5"/>
    <line x1="51.5" y1="267.5" x2="51.0" y2="267.5"/>
    <line x1="51.0" y1="267.5" x2="51.0" y2="242.5"/>
    <line x1="51.0" y1="242.5" x2="53.5" y2="242.5"/>
    <line x1="53.5" y1="242.5" x2="53.5" y2="240.5"/>
    <line x1="53.5" y1="240.5" x2="51.0" y2="240.5"/>
    <line x1="51.0" y1="240.5" x2="49.179351401651" y2="240.5"/>
    <line x1="49.179351401651" y1="240.5" x2="47.0" y2="262.5"/>
    <line x1="47.0" y1="262.5" x2="46.5" y2="262.5"/>
    <line x1="46.5" y1="262.5" x2="46.5" y2="245.5"/>
    <line x1="46.5" y1="245.5" x2="37.0" y2="245.5"/>
    <line x1="37.0" y1="245.5" x2="37.0" y2="262.5"/>
    <line x1="37.0" y1="262.5" x2="36.5" y2="262.5"/>
    <line x1="36.5" y1="262.5" x2="34.2740114346681" y2="240.5"/>
    <line x1="34.2740114346681" y1="240.5" x2="30.0" y2="240.5"/>
    <line x1="30.0" y1="240.5" x2="30.0" y2="242.5"/>
    <line x1="30.0" y1="242.5" x2="32.5" y2="242.5"/>
    <line x1="32.5" y1="242.5" x2="32.5" y2="267.5"/>
    <line x1="32.5" y1="267.5" x2="32.0" y2="267.5"/>
    <line x1="32.0" y1="267.5" x2="32.0" y2="245.5"/>
    <line x1="32.0" y1="245.5" x2="10.0" y2="245.5"/>
    <line x1="10.0" y1="245.5" x2="10.0" y2="309.0"/>
    <line x1="10.0" y1="309.0" x2="32.0" y2="309.0"/>
    <line x1="15.1" y1="267.15" x2="15.1" y2="287.35"/>
    <line x1="15.1" y1="287.35" x2="11.9" y2="287.35"/>
    <line x1="11.9" y1="287.35" x2="11.9" y2="267.15"/>
    <line x1="11.9" y1="267.15" x2="15.1" y2="267.15"/>
    <line x1="71.6" y1="287.35" x2="68.4" y2="287.35"/>
    <line x1="68.4" y1="287.35" x2="68.4" y2="267.15"/>
    <line x1="68.4" y1="267.15" x2="71.6" y2="267.15"/>
    <line x1="71.6" y1="267.15" x2="71.6" y2="287.35"/>
  </g>
  <g id="face4" fill="none" stroke="rgb(0,0,255)" stroke-width="0.3" stroke-miterlimit="4" stroke-dasharray="none" stroke-linejoin="round" stroke-linecap="round">
    <line x1="54.75" y1="327.0" x2="54.75" y2="324.0"/>
    <line x1="54.75" y1="324.0" x2="34.75" y2="324.0"/>
    <line x1="34.75" y1="324.0" x2="34.75" y2="327.0"/>
    <line x1="34.75" y1="327.0" x2="13.0" y2="327.0"/>
    <line x1="13.0" y1="327.0" x2="13.0" y2="343.75"/>
    <line x1="13.0" y1="343.75" x2="10.0" y2="343.75"/>
    <line x1="10.0" y1="343.75" x2="10.0" y2="363.75"/>
    <line x1="10.0" y1="363.75" x2="13.0" y2="363.75"/>
    <line x1="13.0" y1="363.75" x2="13.0" y2="380.5"/>
    <line x1="13.0" y1="380.5" x2="34.75" y2="380.5"/>
    <line x1="34.75" y1="380.5" x2="34.75" y2="383.5"/>
    <line x1="34.75" y1="383.5" x2="54.75" y2="383.5"/>
    <line x1="54.75" y1="383.5" x2="54.75" y2="380.5"/>
    <line x1="54.75" y1="380.5" x2="76.5" y2="380.5"/>
    <line x1="76.5" y1="380.5" x2="76.5" y2="363.75"/>
    <line x1="76.5" y1="363.75" x2="79.5" y2="363.75"/>
    <line x1="79.5" y1="363.75" x2="79.5" y2="343.75"/>
    <line x1="79.5" y1="343.75" x2="76.5" y2="343.75"/>
    <line x1="76.5" y1="343.75" x2="76.5" y2="327.0"/>
    <line x1="76.5" y1="327.0" x2="54.75" y2="327.0"/>
    <line stroke="rgb(255,0,0)" x1="19.75" y1="353.75" x2="19.75" y2="329.75"/>
    <line stroke="rgb(255,0,0)" x1="19.75" y1="329.75" x2="24.75" y2="329.75"/>
    <line stroke="rgb(255,0,0)" x1="24.75" y1="329.75" x2="24.75" y2="353.75"/>
    <line stroke="rgb(255,0,0)" x1="24.75" y1="353.75" x2="19.75" y2="353.75"/>
    <line stroke="rgb(255,0,0)" x1="54.75" y1="377.75" x2="34.75" y2="377.75"/>
    <line stroke="rgb(255,0,0)" x1="34.75" y1="377.75" x2="34.75" y2="329.75"/>
    <line stroke="rgb(255,0,0)" x1="34.75" y1="329.75" x2="54.75" y2="329.75"/>
    <line stroke="rgb(255,0,0)" x1="54.75" y1="329.75" x2="54.75" y2="377.75"/>
    <line stroke="rgb(255,0,0)" x1="64.75" y1="353.75" x2="69.75" y2="353.75"/>
    <line stroke="rgb(255,0,0)" x1="69.75" y1="353.75" x2="69.75" y2="377.75"/>
    <line stroke="rgb(255,0,0)" x1="69.75" y1="377.75" x2="64.75" y2="377.75"/>
    <line stroke="rgb(255,0,0)" x1="64.75" y1="377.75" x2="64.75" y2="353.75"/>
  </g>
  <g id="face5" fill="none" stroke="rgb(0,0,255)" stroke-width="0.3" stroke-miterlimit="4" stroke-dasharray="none" stroke-linejoin="round" stroke-linecap="round">
  </g>
  <g id="face6" fill="none" stroke="rgb(0,0,255)" stroke-width="0.3" stroke-miterlimit="4" stroke-dasharray="none" stroke-linejoin="round" stroke-linecap="round">
  </g>
  <g id="face7" fill="none" stroke="rgb(0,0,255)" stroke-width="0.3" stroke-miterlimit="4" stroke-dasharray="none" stroke-linejoin="round" stroke-linecap="round">
  </g>
  <g id="face8" fill="none" stroke="rgb(0,0,255)" stroke-width="0.3" stroke-miterlimit="4" stroke-dasharray="none" stroke-linejoin="round" stroke-linecap="round">
    <line x1="54.75" y1="396.5" x2="54.75" y2="393.5"/>
    <line x1="54.75" y1="393.5" x2="34.75" y2="393.5"/>
    <line x1="34.75" y1="393.5" x2="34.75" y2="396.5"/>
    <line x1="34.75" y1="396.5" x2="13.0" y2="396.5"/>
    <line x1="13.0" y1="396.5" x2="13.0" y2="413.25"/>
    <line x1="13.0" y1="413.25" x2="10.0" y2="413.25"/>
    <line x1="10.0" y1="413.25" x2="10.0" y2="433.25"/>
    <line x1="10.0" y1="433.25" x2="13.0" y2="433.25"/>
    <line x1="13.0" y1="433.25" x2="13.0" y2="450.0"/>
    <line x1="13.0" y1="450.0" x2="34.75" y2="450.0"/>
    <line x1="34.75" y1="450.0" x2="34.75" y2="453.0"/>
    <line x1="34.75" y1="453.0" x2="54.75" y2="453.0"/>
    <line x1="54.75" y1="453.0" x2="54.75" y2="450.0"/>
    <line x1="54.75" y1="450.0" x2="76.5" y2="450.0"/>
    <line x1="76.5" y1="450.0" x2="76.5" y2="433.25"/>
    <line x1="76.5" y1="433.25" x2="79.5" y2="433.25"/>
    <line x1="79.5" y1="433.25" x2="79.5" y2="413.25"/>
    <line x1="79.5" y1="413.25" x2="76.5" y2="413.25"/>
    <line x1="76.5" y1="413.25" x2="76.5" y2="396.5"/>
    <line x1="76.5" y1="396.5" x2="54.75" y2="396.5"/>
  </g>
</svg>
